<?xml version="1.0" encoding="utf-8"?>
<!-- Generator: Adobe Illustrator 24.2.1, SVG Export Plug-In . SVG Version: 6.00 Build 0)  -->
<svg version="1.1" id="Слой_1" xmlns="http://www.w3.org/2000/svg" xmlns:xlink="http://www.w3.org/1999/xlink" x="0px" y="0px"
	 viewBox="0 0 28 28" style="enable-background:new 0 0 28 28;" xml:space="preserve">
<style type="text/css">
	.st0{fill:none;}
	.st1{fill:#F17300;}
</style>
<desc>Created with Sketch.</desc>
<g id="Page-1">
	<g id="list_add_outline_28">
		<rect class="st0" width="28" height="28"/>
		<path id="_x21B3_-Icon-Color" class="st1" d="M20,12c0.6,0,1,0.4,1,1v4h4c0.6,0,1,0.4,1,1s-0.4,1-1,1h-4v4c0,0.6-0.4,1-1,1
			s-1-0.4-1-1v-4h-4c-0.6,0-1-0.4-1-1s0.4-1,1-1h4v-4C19,12.4,19.4,12,20,12z M9.5,17c0.6,0,1,0.4,1,1s-0.4,1-1,1h-5
			c-0.6,0-1-0.4-1-1s0.4-1,1-1H9.5z M14.5,11c0.6,0,1,0.4,1,1s-0.4,1-1,1h-10c-0.6,0-1-0.4-1-1s0.4-1,1-1H14.5z M21.5,5
			c0.6,0,1,0.4,1,1s-0.4,1-1,1h-17c-0.6,0-1-0.4-1-1s0.4-1,1-1H21.5z"/>
	</g>
</g>
</svg>
