<?xml version="1.0" encoding="utf-8"?>
<!-- Generator: Adobe Illustrator 24.2.1, SVG Export Plug-In . SVG Version: 6.00 Build 0)  -->
<svg version="1.1" id="Слой_1" xmlns="http://www.w3.org/2000/svg" xmlns:xlink="http://www.w3.org/1999/xlink" x="0px" y="0px"
	 viewBox="0 0 28 28" style="enable-background:new 0 0 28 28;" xml:space="preserve">
<style type="text/css">
	.st0{fill:#2787F5;}
	.st1{fill:#FFFFFF;}
</style>
<path class="st0" d="M18.3,0C26.1,0,28,1.9,28,9.7v8.6c0,7.8-1.9,9.7-9.7,9.7H9.7C1.9,28,0,26.1,0,18.3V9.7C0,1.9,1.9,0,9.7,0
	C9.7,0,18.3,0,18.3,0z"/>
<path class="st1" d="M7.3,8.8h-2C4.7,8.8,4.6,9,4.6,9.3c0,0.5,0.7,3.2,3.2,6.8c1.7,2.4,4.1,3.7,6.2,3.7c1.3,0,1.5-0.3,1.5-0.8v-1.8
	c0-0.6,0.1-0.7,0.5-0.7c0.3,0,0.8,0.2,2,1.3c1.4,1.4,1.6,2,2.4,2h2c0.6,0,0.9-0.3,0.7-0.9c-0.2-0.6-0.8-1.4-1.7-2.4
	C21,16,20.3,15.4,20,15.1c-0.3-0.4-0.2-0.6,0-0.9l0-0.1c0.3-0.4,2.5-3.5,2.7-4.6c0.1-0.4,0-0.8-0.6-0.8h-2c-0.5,0-0.8,0.3-0.9,0.6
	c0,0-1,2.5-2.5,4.2c-0.5,0.5-0.7,0.6-1,0.6c-0.1,0-0.3-0.2-0.3-0.6v-4c0-0.5-0.2-0.8-0.6-0.8h-3.2c-0.3,0-0.5,0.2-0.5,0.5
	c0,0.5,0.7,0.6,0.8,2v3c0,0.7-0.1,0.8-0.4,0.8c-0.7,0-2.4-2.5-3.4-5.5C8,9,7.8,8.8,7.3,8.8z"/>
</svg>
