<?xml version="1.0" encoding="utf-8"?>
<!-- Generator: Adobe Illustrator 24.2.1, SVG Export Plug-In . SVG Version: 6.00 Build 0)  -->
<svg version="1.1" id="Слой_1" xmlns="http://www.w3.org/2000/svg" xmlns:xlink="http://www.w3.org/1999/xlink" x="0px" y="0px"
	 viewBox="0 0 28 28" style="enable-background:new 0 0 28 28;" xml:space="preserve">
<style type="text/css">
	.st0{fill:none;}
	.st1{fill:#F17300;}
</style>
<desc>Created with Sketch.</desc>
<g id="Page-1">
	<g id="checks_outline_28">
		<rect class="st0" width="28" height="28"/>
		<path id="_x21B3_-Icon-Color" class="st1" d="M18.7,8.3c0.4,0.4,0.4,0.9,0.1,1.3l-0.1,0.1l-10,10c-0.4,0.4-0.9,0.4-1.3,0.1
			l-0.1-0.1l-4-4c-0.4-0.4-0.4-1,0-1.4c0.4-0.4,0.9-0.4,1.3-0.1l0.1,0.1L8,17.6l9.3-9.3C17.7,7.9,18.3,7.9,18.7,8.3z M24.7,8.3
			c0.4,0.4,0.4,0.9,0.1,1.3l-0.1,0.1l-10,10c-0.4,0.4-1,0.4-1.4,0c-0.4-0.4-0.4-0.9-0.1-1.3l0.1-0.1l10-10
			C23.7,7.9,24.3,7.9,24.7,8.3z"/>
	</g>
</g>
</svg>
