<?xml version="1.0" encoding="utf-8"?>
<!-- Generator: Adobe Illustrator 24.2.1, SVG Export Plug-In . SVG Version: 6.00 Build 0)  -->
<svg version="1.1" id="Слой_1" xmlns="http://www.w3.org/2000/svg" xmlns:xlink="http://www.w3.org/1999/xlink" x="0px" y="0px"
	 viewBox="0 0 28 28" style="enable-background:new 0 0 28 28;" xml:space="preserve">
<style type="text/css">
	.st0{fill:none;}
	.st1{fill:#F17300;}
</style>
<desc>Created with Sketch.</desc>
<g id="Page-1">
	<g id="users_3_outline_28">
		<rect class="st0" width="28" height="28"/>
		<path id="_x21B3_-Icon-Color" class="st1" d="M14,14.5c3.9,0,6.5,1.8,6.5,4.5c0,1.9-1.3,3-3,3h-7c-1.7,0-3-1.1-3-3
			C7.5,16.3,10.1,14.5,14,14.5z M22,14.5c2.7,0,4.5,1.7,4.5,3.8c0,1.7-1.3,2.8-2.8,2.8l0,0H23c-0.6,0-1-0.4-1-1s0.4-1,1-1l0,0h0.8
			c0.4,0,0.8-0.3,0.8-0.8c0-1-0.8-1.8-2.5-1.8c-0.6,0-1-0.4-1-1S21.4,14.5,22,14.5z M6,14.5c0.6,0,1,0.4,1,1s-0.4,1-1,1
			c-1.7,0-2.5,0.8-2.5,1.8c0,0.5,0.3,0.8,0.8,0.8H5c0.6,0,1,0.4,1,1s-0.4,1-1,1H4.3c-1.5,0-2.8-1.1-2.8-2.8
			C1.5,16.2,3.3,14.5,6,14.5z M14,16.5c-2.9,0-4.5,1.1-4.5,2.5c0,0.7,0.3,1,1,1h7c0.7,0,1-0.3,1-1C18.5,17.6,16.9,16.5,14,16.5z
			 M20,6c1.9,0,3.5,1.6,3.5,3.5S21.9,13,20,13c-0.6,0-1-0.4-1-1s0.4-1,1-1l0,0l0.1,0c0.8-0.1,1.4-0.7,1.4-1.5C21.5,8.7,20.8,8,20,8
			l0,0l-0.1,0C19.4,7.9,19,7.5,19,7C19,6.4,19.4,6,20,6z M8,6c0.6,0,1,0.4,1,1c0,0.5-0.4,0.9-0.9,1L8,8C7.2,8,6.5,8.7,6.5,9.5
			c0,0.8,0.6,1.4,1.4,1.5L8,11c0.6,0,1,0.4,1,1s-0.4,1-1,1c-1.9,0-3.5-1.6-3.5-3.5S6.1,6,8,6z M14,5c2.2,0,4,1.8,4,4s-1.8,4-4,4
			s-4-1.8-4-4S11.8,5,14,5z M14,7c-1.1,0-2,0.9-2,2s0.9,2,2,2s2-0.9,2-2S15.1,7,14,7z"/>
	</g>
</g>
</svg>
